<svg xmlns="http://www.w3.org/2000/svg" width="48.438" height="43" viewBox="0 0 48.438 43">
  <defs>
    <style>
      .cls-1 {
        fill: #fabe00;
        fill-rule: evenodd;
      }
    </style>
  </defs>
  <path id="fengchao" class="cls-1" d="M621.873,769.492l-8.863,15.5a5.849,5.849,0,0,1-5.209,3.022H589.166a5.847,5.847,0,0,1-5.208-3.022l-8.863-15.5a5.842,5.842,0,0,1,0-5.956l8.863-15.5a5.845,5.845,0,0,1,5.208-3.022H607.8a5.847,5.847,0,0,1,5.209,3.022l8.863,15.5A5.847,5.847,0,0,1,621.873,769.492ZM598.5,783a16.371,16.371,0,0,0,9.465-3h-18.93A16.369,16.369,0,0,0,598.5,783Zm-12.7-6H611.2a16.576,16.576,0,0,0,1.981-3H583.816A16.576,16.576,0,0,0,585.8,777Zm-3.691-12H597v-3H582.628A16.637,16.637,0,0,0,582.106,765Zm1.71-6H597v-3H585.772A16.507,16.507,0,0,0,583.816,759Zm5.215-6H597v-2.926A16.418,16.418,0,0,0,589.031,753ZM600,750.074V753h7.969A16.418,16.418,0,0,0,600,750.074ZM611.228,756H600v3h13.184A16.507,16.507,0,0,0,611.228,756Zm3.144,6H600v3h14.894A16.637,16.637,0,0,0,614.372,762ZM600,768H582.079a16.868,16.868,0,0,0,.558,3h31.726a16.868,16.868,0,0,0,.558-3H600Z" transform="translate(-574.281 -745)"/>
</svg>
