<svg xmlns="http://www.w3.org/2000/svg" width="45" height="43" viewBox="0 0 45 43">
  <defs>
    <style>
      .cls-1 {
        fill: #cacee0;
        fill-rule: evenodd;
      }
    </style>
  </defs>
  <path id="shangmen-f" class="cls-1" d="M396.855,762.8a3.9,3.9,0,0,1-.826.627V784a4,4,0,0,1-4.006,4H383.01V773a2,2,0,0,0-2-2H369.992a2,2,0,0,0-2,2v15h-9.013a4,4,0,0,1-4.006-4V763.44a3.906,3.906,0,0,1-.857-0.643,4.06,4.06,0,0,1,0-5.657l18.6-10.97a3.861,3.861,0,0,1,5.54,0l18.6,10.97A4.06,4.06,0,0,1,396.855,762.8ZM375.5,756a3.5,3.5,0,1,0,3.5,3.5A3.5,3.5,0,0,0,375.5,756ZM372,774h7.01a1,1,0,0,1,1,1v13h-9.012V775A1,1,0,0,1,372,774Z" transform="translate(-353 -745)"/>
</svg>
