<svg xmlns="http://www.w3.org/2000/svg" width="26" height="26" viewBox="0 0 26 26">
  <defs>
    <style>
      .cls-1 {
        fill: #cacee0;
        fill-rule: evenodd;
      }
    </style>
  </defs>
  <path id="wenhao" class="cls-1" d="M193,942a13,13,0,1,1,13-13A13,13,0,0,1,193,942Zm0-24a11,11,0,1,0,11,11A11,11,0,0,0,193,918Zm2.276,12.069a4.364,4.364,0,0,0-1.052,1.262,3.38,3.38,0,0,0-.434,1.73V933.6h-1.852v-0.538a4.477,4.477,0,0,1,.435-2.034,9.031,9.031,0,0,1,2.308-2.711q0.457-.468.777-0.842a3.046,3.046,0,0,0,.663-1.846,2.978,2.978,0,0,0-.754-2.174,3.024,3.024,0,0,0-2.263-.818,2.951,2.951,0,0,0-2.537,1.145,4.469,4.469,0,0,0-.731,2.688h-1.829a5.639,5.639,0,0,1,1.349-3.927A4.958,4.958,0,0,1,193.2,921a4.85,4.85,0,0,1,3.52,1.239,4.285,4.285,0,0,1,1.28,3.3,4.614,4.614,0,0,1-.846,2.735A23.7,23.7,0,0,1,195.276,930.069Zm-2.4,5.166a1.314,1.314,0,0,1,.982.4,1.352,1.352,0,0,1,.389.982,1.379,1.379,0,0,1-.389,1,1.415,1.415,0,0,1-.982.4,1.315,1.315,0,0,1-.983-0.4,1.383,1.383,0,0,1-.412-1A1.381,1.381,0,0,1,192.876,935.235Z" transform="translate(-180 -916)"/>
</svg>
