<svg xmlns="http://www.w3.org/2000/svg" width="48" height="44" viewBox="0 0 48 44">
  <defs>
    <style>
      .cls-1 {
        fill: #7c829d;
        fill-rule: evenodd;
      }
    </style>
  </defs>
  <path id="SF-非选择" class="cls-1" d="M220,765H176a2,2,0,0,1-2-2V731.756l4-8.7A3.167,3.167,0,0,1,180.76,721h34.48a2.857,2.857,0,0,1,2.76,2.057l4,8.6V763A2,2,0,0,1,220,765Zm-40-42-4,9h16.115l0.542-9H180Zm21.055,0h-6.11l-0.541,9H201.6ZM216,723H203.343l0.542,9H220Zm4,11H202l-0.28.013V734h-7.434v0.013L194,734H176v29h44V734Zm-32.446,20.249a5.624,5.624,0,0,0,3.532.97,6.588,6.588,0,0,0,3.458-.8,2.451,2.451,0,0,0,1.315-2.183,2.815,2.815,0,0,0-1.729-2.546,22.312,22.312,0,0,0-3.678-1.261,27.974,27.974,0,0,1-3.994-1.407,3.674,3.674,0,0,1-2-3.347,3.946,3.946,0,0,1,1.923-3.517,7.785,7.785,0,0,1,4.433-1.164,7.2,7.2,0,0,1,4.627,1.334,5.725,5.725,0,0,1,2,4.123h-1.973a4.355,4.355,0,0,0-1.461-2.789,5.134,5.134,0,0,0-3.288-.922,5.915,5.915,0,0,0-3.02.631,2.395,2.395,0,0,0,.244,4.317,18.742,18.742,0,0,0,3.19,1.091,23.443,23.443,0,0,1,4.53,1.674,4.077,4.077,0,0,1,2.168,3.662,4.179,4.179,0,0,1-1.827,3.589,8.462,8.462,0,0,1-4.919,1.286,7.9,7.9,0,0,1-4.822-1.31A6.2,6.2,0,0,1,184,750.927h1.972A4.8,4.8,0,0,0,187.554,754.249Zm24.451-13.193h-9.644v5.82h9.132V748.6h-9.132v8.052h-2V739.334h11.641v1.722Z" transform="translate(-174 -721)"/>
</svg>
