<svg xmlns="http://www.w3.org/2000/svg" width="50" height="50" viewBox="0 0 50 50">
  <defs>
    <style>
      .cls-1 {
        fill: #fff;
        fill-rule: evenodd;
      }
    </style>
  </defs>
  <path id="上门" class="cls-1" d="M567,768H519V732.082a0.973,0.973,0,0,1,.276-0.766l12.959-12.959a0.877,0.877,0,0,1,.054-0.081,1.024,1.024,0,0,1,1.422,0,0.877,0.877,0,0,1,.054.081l12.959,12.959a0.971,0.971,0,0,1,.276.766V738h20a2,2,0,0,1,2,2v25h0v3h-2Zm-36-2h4V750h-4v16Zm14-33.618-12-12-12,12V766h8V750a2,2,0,0,1,2-2h4a2,2,0,0,1,2,2v16h8V740h0v-7.618ZM567,765V740H547v26h20v-1Zm-13-18h6a1,1,0,0,1,0,2h-6A1,1,0,0,1,554,747Zm0,5h6a1,1,0,0,1,0,2h-6A1,1,0,0,1,554,752Zm0,5h6a1,1,0,0,1,0,2h-6A1,1,0,0,1,554,757Zm-18-15h-6a1,1,0,0,1,0-2h6A1,1,0,0,1,536,742Z" transform="translate(-519 -718)"/>
</svg>
