<svg xmlns="http://www.w3.org/2000/svg" width="24" height="26" viewBox="0 0 24 26">
  <defs>
    <style>
      .cls-1 {
        fill: #292e3e;
        fill-rule: evenodd;
      }
    </style>
  </defs>
  <path id="删除" class="cls-1" d="M709,272h-2v18a2,2,0,0,1-2,2H691a2,2,0,0,1-2-2V272h-2a1,1,0,0,1,0-2h22A1,1,0,0,1,709,272Zm-4,0H691v18h14V272Zm-10,2a1,1,0,0,1,1,1v12a1,1,0,0,1-2,0V275A1,1,0,0,1,695,274Zm6,0a1,1,0,0,1,1,1v12a1,1,0,0,1-2,0V275A1,1,0,0,1,701,274Zm1-6h-8a1,1,0,0,1,0-2h8A1,1,0,0,1,702,268Z" transform="translate(-686 -266)"/>
</svg>
