<svg xmlns="http://www.w3.org/2000/svg" width="48" height="44" viewBox="0 0 48 44">
  <defs>
    <style>
      .cls-1 {
        fill: #ff5c7f;
        fill-rule: evenodd;
      }
    </style>
  </defs>
  <path id="帮助中心" class="cls-1" d="M145.86,729.872l0.13,0.13L126,750l-19.99-20,0.13-.13A13.844,13.844,0,0,1,102,720a14.113,14.113,0,0,1,14.222-14A14.281,14.281,0,0,1,126,709.851,14.281,14.281,0,0,1,135.778,706,14.113,14.113,0,0,1,150,720,13.844,13.844,0,0,1,145.86,729.872Zm-20.966,4.84a1.514,1.514,0,0,0,1.118.442,1.63,1.63,0,0,0,1.118-.442,1.514,1.514,0,0,0,.442-1.118,1.483,1.483,0,0,0-.442-1.092,1.514,1.514,0,0,0-1.118-.442,1.46,1.46,0,0,0-1.118.442,1.39,1.39,0,0,0-.468,1.092A1.526,1.526,0,0,0,124.894,734.712ZM130.38,717.6a5.588,5.588,0,0,0-4-1.378,5.706,5.706,0,0,0-4.368,1.716,6.187,6.187,0,0,0-1.534,4.368h2.08a4.891,4.891,0,0,1,.832-2.99,3.387,3.387,0,0,1,2.886-1.274,3.481,3.481,0,0,1,2.574.91,3.27,3.27,0,0,1,.858,2.418,3.342,3.342,0,0,1-.754,2.054q-0.364.416-.884,0.936a10.115,10.115,0,0,0-2.626,3.016,4.892,4.892,0,0,0-.494,2.262v0.6h2.106v-0.6a3.7,3.7,0,0,1,.494-1.924,4.893,4.893,0,0,1,1.2-1.4,26.5,26.5,0,0,0,2.132-2,5.049,5.049,0,0,0,.962-3.042A4.708,4.708,0,0,0,130.38,717.6Z" transform="translate(-102 -706)"/>
</svg>
