<svg xmlns="http://www.w3.org/2000/svg" width="36" height="36" viewBox="0 0 36 36">
  <defs>
    <style>
      .cls-1 {
        fill: #cacee0;
        fill-rule: evenodd;
      }
    </style>
  </defs>
  <path id="一键删除" class="cls-1" d="M646,299a18,18,0,1,1,18-18A18,18,0,0,1,646,299Zm4.934-21.551a1,1,0,0,0-1.414-1.414l-3.536,3.535-3.535-3.535a1,1,0,0,0-1.414,1.414l3.535,3.535-3.535,3.536a1,1,0,0,0,1.414,1.414l3.535-3.535,3.536,3.535a1,1,0,0,0,1.414-1.414l-3.535-3.536Z" transform="translate(-628 -263)"/>
</svg>
