<svg xmlns="http://www.w3.org/2000/svg" width="28" height="28" viewBox="0 0 28 28">
  <defs>
    <style>
      .cls-1 {
        fill: #d0d4e4;
        fill-rule: evenodd;
      }
    </style>
  </defs>
  <path id="一键删除" class="cls-1" d="M596,196a14,14,0,1,1,14-14A14,14,0,0,1,596,196Zm4.678-17.233a1.045,1.045,0,1,0-1.478-1.478l-3.216,3.217-3.217-3.217a1.045,1.045,0,0,0-1.478,1.478l3.217,3.217-3.217,3.216a1.045,1.045,0,0,0,1.478,1.478l3.217-3.217,3.216,3.217a1.045,1.045,0,1,0,1.478-1.478l-3.217-3.216Z" transform="translate(-582 -168)"/>
</svg>
