<svg id="疑问" xmlns="http://www.w3.org/2000/svg" width="42" height="42" viewBox="0 0 42 42">
  <defs>
    <style>
      .cls-1 {
        fill: #f2f4fa;
      }

      .cls-2 {
        fill: #cacee0;
        fill-rule: evenodd;
      }
    </style>
  </defs>
  <circle id="椭圆_5_拷贝_4" data-name="椭圆 5 拷贝 4" class="cls-1" cx="21" cy="21" r="21"/>
  <path id="_" data-name="?" class="cls-2" d="M664.2,617.867a6.58,6.58,0,0,0-5.04,1.98,7.138,7.138,0,0,0-1.77,5.04h2.4a5.64,5.64,0,0,1,.96-3.45,3.905,3.905,0,0,1,3.33-1.47,4.02,4.02,0,0,1,2.97,1.05,3.773,3.773,0,0,1,.99,2.79,3.865,3.865,0,0,1-.87,2.37q-0.422.48-1.02,1.08a11.661,11.661,0,0,0-3.03,3.48,5.63,5.63,0,0,0-.57,2.61v0.69h2.43v-0.69a4.256,4.256,0,0,1,.57-2.22,5.614,5.614,0,0,1,1.38-1.62,31.031,31.031,0,0,0,2.46-2.31,5.83,5.83,0,0,0,1.11-3.51,5.437,5.437,0,0,0-1.68-4.23,6.453,6.453,0,0,0-4.62-1.59h0Zm-0.42,18.27a1.686,1.686,0,0,0-1.29.51,1.605,1.605,0,0,0-.54,1.26,1.793,1.793,0,0,0,1.83,1.8,1.885,1.885,0,0,0,1.29-.51,1.752,1.752,0,0,0,.51-1.29,1.716,1.716,0,0,0-.51-1.26,1.752,1.752,0,0,0-1.29-.51h0Z" transform="translate(-643 -608)"/>
</svg>
