<svg id="常见问题" xmlns="http://www.w3.org/2000/svg" width="45" height="49" viewBox="0 0 45 49">
  <defs>
    <style>
      .cls-1 {
        fill: #cacee0;
        fill-rule: evenodd;
      }
    </style>
  </defs>
  <path id="Q" class="cls-1" d="M118.184,196.5L102,201v-7.187A22.476,22.476,0,1,1,118.184,196.5ZM113.5,156a18.494,18.494,0,0,0-7.5,35.4V196l10.719-3.3A18.491,18.491,0,0,0,113.5,156Zm6.471,27.944Q119,184,118.508,184a1.755,1.755,0,0,1-1.142-.341,1.031,1.031,0,0,1-.417-0.821,1.113,1.113,0,0,1,.629-0.711q3.978-2.583,3.979-8.586a11.641,11.641,0,0,0-.964-4.908A9.044,9.044,0,0,0,118,165.254a7.8,7.8,0,0,0-10.234,1.463,11.028,11.028,0,0,0-2.084,6.863,11.43,11.43,0,0,0,2.023,6.952,6.729,6.729,0,0,0,5.769,2.755q0.219,0,1.245-.054,0.013,3.623,4.156,3.623,0.3,0,1.914-.123v-2.817q-0.547.014-.82,0.028h0ZM109.32,173.758q0-7.082,4.334-7.082a3.628,3.628,0,0,1,3.083,1.62q1.17,1.62,1.169,5.284,0,6.891-4.375,6.891-4.21,0-4.211-6.713h0Z" transform="translate(-91 -152)"/>
</svg>
