<svg id="机器估价-选中" xmlns="http://www.w3.org/2000/svg" width="49" height="49" viewBox="0 0 49 49">
  <defs>
    <style>
      .cls-1 {
        fill: #7c829d;
        fill-rule: evenodd;
      }
    </style>
  </defs>
  <path id="椭圆_5_拷贝" data-name="椭圆 5 拷贝" class="cls-1" d="M287.383,169.676a3.8,3.8,0,0,0-2.4.656,2.042,2.042,0,0,0-.827,1.668q0,1.6,2.6,2.242l3.172,0.793a6.474,6.474,0,0,1,3.869,2.14,5.352,5.352,0,0,1,.984,3.124,5.143,5.143,0,0,1-2.071,4.327A7.781,7.781,0,0,1,289,186.088V188h-3v-1.867a9.238,9.238,0,0,1-3.519-1.09,5.7,5.7,0,0,1-2.768-3.623l3.267-.7q0.588,2.775,4.512,2.775a4.583,4.583,0,0,0,2.755-.711,2.12,2.12,0,0,0,.964-1.763,2.478,2.478,0,0,0-.438-1.415,3.141,3.141,0,0,0-1.873-1.019l-3.568-.93a8.8,8.8,0,0,1-2.707-1.086,4.257,4.257,0,0,1-1.4-1.716,5.444,5.444,0,0,1-.527-2.366,4.908,4.908,0,0,1,1.86-4.012A6.775,6.775,0,0,1,286,167.059V165h3v2.127a8.235,8.235,0,0,1,2.614.895,4.743,4.743,0,0,1,2.413,2.98l-3.2.793Q290.09,169.676,287.383,169.676ZM287.5,152A24.5,24.5,0,1,1,263,176.5,24.5,24.5,0,0,1,287.5,152Z" transform="translate(-263 -152)"/>
</svg>
