<svg id="机器估价" xmlns="http://www.w3.org/2000/svg" width="49" height="49" viewBox="0 0 49 49">
  <defs>
    <style>
      .cls-1 {
        fill: #cacee0;
        fill-rule: evenodd;
      }
    </style>
  </defs>
  <path id="S" class="cls-1" d="M287.5,201A24.5,24.5,0,1,1,312,176.5,24.5,24.5,0,0,1,287.5,201Zm0-45A20.5,20.5,0,1,0,308,176.5,20.5,20.5,0,0,0,287.5,156Zm-0.746,18.242,3.172,0.793a6.474,6.474,0,0,1,3.869,2.14,5.352,5.352,0,0,1,.984,3.124,5.143,5.143,0,0,1-2.071,4.327A7.781,7.781,0,0,1,289,186.088V188h-3v-1.867a9.238,9.238,0,0,1-3.519-1.09,5.7,5.7,0,0,1-2.768-3.623l3.267-.7q0.588,2.775,4.512,2.775a4.583,4.583,0,0,0,2.755-.711,2.12,2.12,0,0,0,.964-1.763,2.478,2.478,0,0,0-.438-1.415,3.141,3.141,0,0,0-1.873-1.019l-3.568-.93a8.8,8.8,0,0,1-2.707-1.086,4.257,4.257,0,0,1-1.4-1.716,5.444,5.444,0,0,1-.527-2.366,4.908,4.908,0,0,1,1.86-4.012A6.775,6.775,0,0,1,286,167.059V165h3v2.127a8.235,8.235,0,0,1,2.614.895,4.743,4.743,0,0,1,2.413,2.98l-3.2.793q-0.738-2.119-3.445-2.119a3.8,3.8,0,0,0-2.4.656,2.042,2.042,0,0,0-.827,1.668Q284.156,173.6,286.754,174.242Z" transform="translate(-263 -152)"/>
</svg>
